PathFileType	4	(X/Y/Z)	Walk10.trc
DataRate	CameraRate	NumFrames	NumMarkers	Units	OrigDataRate	OrigDataStartFrame	OrigNumFrames
200.000000	200.000000	8	68	mm	200.000000	697	783
Frame#	Times		LToe		LowerBodyModelVer		LBHD		LWRR		LElbow		RMT1		LACR1		RMT5		RToe		LUA1		RTB2		LWRU		RCAL		LCAR		RTB3		RTB4		RFA1		LMT5		RWRU		RMMAL		C7		LASI		RLFC		LTB2		LPSI		LLFC		LMMAL		RElbowM		LTH3		RASI		RPSI		LHJC		MidPelvis		OPelvis		PELOrigin		RHJC		SACR		XPelvis		YPelvis		ZPelvis		LCAL		RElbow		LFHD		RTH3		RCAR		STRN		RBHD		LMT1		RMFC		RKJC		LLMAL		RWRR		RLMAL		RUA1		RFHD		RBack		LMFC		LKJC		LTH4		RTH1		LTH1		LTH2		LTB1		LTB4		LTB3		RTH4		RTB1		RTH2
			X1	Y1	Z1	X2	Y2	Z2	X3	Y3	Z3	X4	Y4	Z4	X5	Y5	Z5	X6	Y6	Z6	X7	Y7	Z7	X8	Y8	Z8	X9	Y9	Z9	X10	Y10	Z10	X11	Y11	Z11	X12	Y12	Z12	X13	Y13	Z13	X14	Y14	Z14	X15	Y15	Z15	X16	Y16	Z16	X17	Y17	Z17	X18	Y18	Z18	X19	Y19	Z19	X20	Y20	Z20	X21	Y21	Z21	X22	Y22	Z22	X23	Y23	Z23	X24	Y24	Z24	X25	Y25	Z25	X26	Y26	Z26	X27	Y27	Z27	X28	Y28	Z28	X29	Y29	Z29	X30	Y30	Z30	X31	Y31	Z31	X32	Y32	Z32	X33	Y33	Z33	X34	Y34	Z34	X35	Y35	Z35	X36	Y36	Z36	X37	Y37	Z37	X38	Y38	Z38	X39	Y39	Z39	X40	Y40	Z40	X41	Y41	Z41	X42	Y42	Z42	X43	Y43	Z43	X44	Y44	Z44	X45	Y45	Z45	X46	Y46	Z46	X47	Y47	Z47	X48	Y48	Z48	X49	Y49	Z49	X50	Y50	Z50	X51	Y51	Z51	X52	Y52	Z52	X53	Y53	Z53	X54	Y54	Z54	X55	Y55	Z55	X56	Y56	Z56	X57	Y57	Z57	X58	Y58	Z58	X59	Y59	Z59	X60	Y60	Z60	X61	Y61	Z61	X62	Y62	Z62	X63	Y63	Z63	X64	Y64	Z64	X65	Y65	Z65	X66	Y66	Z66	X67	Y67	Z67	X68	Y68	Z68

697	3.485	886.3	63.905	-79.913	9	2014	4	523.19	1600.5	-92.265	444.04	807.19	-301.42	443.11	1088.3	-293.21	321.67	29.18	33.997	581.17	1406.8	-194.29	280.52	36.514	107.73	369.09	21.059	72.01	514.32	1212.4	-263.49	392.6	288.88	106.33	510.57	774.15	-290.22	153.67	141.38	18.864	427.8	949.12	-301.11	337.98	219.19	30.916	399.91	283	30.275	566.39	930.2	273.86	810.93	27.161	-136.18	599.18	813.84	242.87	242.64	132	4.5272	496.72	1469	-21.713	606.71	1020.9	-169.08	504.95	496.51	115.46	709.31	309.7	-133.43	408.02	1032.3	-60.591	646.57	519.7	-146.43	720.85	72.806	-33.776	476.02	1083.4	197.73	644.61	581.52	-153.51	571.57	1033.8	142.07	400.21	1035.1	8.5535	524.61	925.2	-123.87	496.63	1030.5	-19.761	589.14	1027.4	-13.503	589.14	1027.4	-13.503	500.72	933.98	87.711	404.11	1033.7	-26.019	668.58	1024.8	-4.425	592.08	1107.3	-16.487	580.17	1030.7	65.924	636.03	32.041	-61.983	515.83	1084.5	274.3	700.29	1641.1	-67.599	511.51	543.52	120.04	671.71	806.21	263.91	422.76	1214.4	-15.577	528.43	1597.4	44.659	850.13	33.971	-62.948	474.15	469.8	-8.7166	489.55	483.16	53.37	696.07	60.014	-113.83	668.61	853.19	214.82	214.19	144.66	81.032	583.83	1244.6	222.23	702.77	1641.4	7.5483	613.06	1420.7	129.68	633.69	492.71	-19.043	640.13	506.21	-82.736	621.77	671.93	-174.59	516.11	731.73	152.19	597.69	760.39	-191.04	684.84	673.91	-209.62	712.51	403.04	-62.427	715.94	310.27	-61.538	721.29	217.96	-62.849	517.61	636.38	138.88	467.48	353.13	34.322	581.31	639.33	101.53
698	3.49	887.26	62.915	-79.97	9	2014	4	528.08	1600.9	-93.034	451.5	807.29	-302.29	449.52	1088.3	-293.88	322.97	29.887	34.083	586.37	1407.4	-194.98	283.37	38.895	107.73	369.88	21.337	72.043	520.33	1212.6	-264.12	400.07	290.91	107.16	518.18	774.47	-291.2	159.23	147.74	20.039	434.73	949.13	-301.82	344.5	221.72	31.909	407.36	284.58	31.138	569.66	930.68	272.88	811.11	26.79	-136.53	601.93	814.18	241.85	247.88	135.98	5.602	501.64	1469.6	-22.574	611.61	1021.6	-169.72	514.8	496.43	115.96	711.74	309.44	-133.59	412.75	1032.6	-61.228	650.56	519.95	-146.82	721.18	72.651	-33.722	479.99	1084.4	196.67	649.2	582.19	-153.72	576.4	1033.7	141.47	404.92	1035.3	7.9259	529.5	925.74	-124.77	501.42	1030.8	-20.388	594	1027.6	-14.124	594	1027.6	-14.124	505.56	933.98	86.837	408.84	1034	-26.651	673.44	1025	-5.0364	596.93	1107.5	-16.904	585.02	1030.7	65.309	636.2	32.171	-61.982	519.78	1085.2	273.29	705.14	1641.5	-68.305	520.89	543.37	120.31	674.4	806.18	263.06	427.48	1214.9	-16.497	533.27	1597.8	43.904	850.52	33.503	-63.035	484.11	469.42	-8.4397	499.45	482.93	53.761	696.37	59.882	-113.82	671.65	853.22	214.04	219.68	149.21	82.115	588.34	1245.1	221.28	707.6	1641.9	6.8422	617.9	1421.1	128.79	637.63	493.52	-19.232	644.1	506.74	-83.027	626.39	672.55	-175.02	523.25	731.81	151.75	602.38	760.96	-191.77	689.38	675.22	-210.19	715.6	402.86	-62.683	718.24	310.07	-61.7	722.81	217.69	-62.879	525.87	636.37	138.74	475.99	353.75	35.104	589.46	640.01	101.29
699	3.495	888.19	61.971	-79.992	9	2014	4	532.94	1601.4	-93.783	459.05	807.38	-303.15	455.95	1088.3	-294.57	324.63	30.766	34.162	591.56	1408	-195.66	286.65	41.426	107.76	371.05	21.744	72.09	526.33	1212.8	-264.75	407.81	292.93	107.97	525.89	774.81	-292.18	165.13	154.01	21.273	441.7	949.13	-302.53	351.31	224.27	32.887	415.05	286.2	31.979	572.91	931.16	271.92	811.29	26.49	-136.82	604.67	814.52	240.84	253.44	139.95	6.6675	506.5	1470.1	-23.429	616.43	1022.2	-170.39	524.78	496.39	116.5	714.14	309.18	-133.69	417.45	1033	-61.866	654.37	520.14	-147.18	721.46	72.497	-33.623	483.92	1085.3	195.64	653.54	582.75	-153.96	581.16	1033.5	140.8	409.61	1035.5	7.2874	534.32	926.26	-125.72	506.16	1031.1	-21.04	598.79	1027.9	-14.791	598.79	1027.9	-14.791	510.34	933.94	85.894	413.53	1034.2	-27.289	678.23	1025.3	-5.692	601.72	1107.8	-17.357	589.79	1030.7	64.649	636.35	32.28	-61.968	523.68	1085.9	272.31	709.97	1641.9	-68.985	530.38	543.25	120.6	677.06	806.15	262.2	432.18	1215.4	-17.421	538.08	1598.3	43.168	850.88	33.107	-63.066	494.24	469.12	-8.1807	509.51	482.76	54.161	696.65	59.767	-113.78	674.67	853.25	213.26	225.54	153.71	83.222	592.8	1245.5	220.34	712.41	1642.3	6.1617	622.69	1421.5	127.91	641.24	494.28	-19.333	647.81	507.21	-83.258	630.85	673.09	-175.45	530.49	731.91	151.33	607.04	761.49	-192.49	693.78	676.47	-210.75	718.56	402.67	-62.85	720.45	309.86	-61.788	724.27	217.42	-62.845	534.22	636.39	138.6	484.7	354.43	35.853	597.71	640.74	101.08
700	3.5	889.09	61.065	-79.987	9	2014	4	537.78	1601.8	-94.514	466.68	807.46	-304.01	462.38	1088.3	-295.28	326.7	31.836	34.238	596.71	1408.5	-196.32	290.39	44.087	107.84	372.69	22.302	72.151	532.32	1213	-265.4	415.82	294.93	108.73	533.7	775.16	-293.14	171.35	160.12	22.56	448.71	949.1	-303.23	358.37	226.82	33.833	422.95	287.84	32.783	576.13	931.62	270.96	811.47	26.251	-137.07	607.38	814.86	239.83	259.29	143.88	7.7135	511.32	1470.6	-24.277	621.17	1022.8	-171.07	534.84	496.4	117.06	716.52	308.92	-133.71	422.13	1033.3	-62.506	658.02	520.29	-147.51	721.69	72.341	-33.485	487.8	1086.3	194.63	657.6	583.19	-154.25	585.84	1033.3	140.08	414.28	1035.6	6.6377	539.06	926.77	-126.69	510.85	1031.3	-21.715	603.5	1028	-15.496	603.5	1028	-15.496	515.03	933.86	84.885	418.2	1034.5	-27.934	682.94	1025.4	-6.3859	606.44	1108	-17.84	594.48	1030.7	63.949	636.48	32.37	-61.945	527.54	1086.6	271.35	714.77	1642.3	-69.639	539.95	543.17	120.9	679.71	806.11	261.33	436.86	1215.9	-18.347	542.86	1598.7	42.449	851.21	32.772	-63.046	504.51	468.91	-7.95	519.68	482.66	54.553	696.92	59.666	-113.73	677.67	853.28	212.48	231.75	158.14	84.349	597.22	1246	219.42	717.19	1642.6	5.507	627.42	1421.9	127.06	644.45	494.98	-19.333	651.23	507.63	-83.421	635.14	673.55	-175.9	537.8	732.03	150.93	611.64	761.98	-193.18	698.01	677.65	-211.29	721.41	402.46	-62.929	722.57	309.64	-61.804	725.66	217.15	-62.754	542.63	636.43	138.47	493.57	355.17	36.546	606.03	641.5	100.9
701	3.505	889.96	60.19	-79.962	9	2014	4	542.58	1602.2	-95.225	474.4	807.52	-304.85	468.83	1088.3	-296.03	329.25	33.111	34.319	601.84	1409	-196.95	294.61	46.857	107.97	374.87	23.035	72.224	538.3	1213.2	-266.05	424.05	296.91	109.45	541.61	775.51	-294.08	177.86	166.04	23.887	455.76	949.05	-303.93	365.66	229.37	34.732	431.04	289.51	33.535	579.32	932.05	270.01	811.64	26.063	-137.26	610.09	815.18	238.83	265.42	147.76	8.7308	516.08	1471	-25.116	625.84	1023.4	-171.77	544.95	496.47	117.6	718.89	308.65	-133.68	426.78	1033.6	-63.149	661.5	520.38	-147.8	721.9	72.185	-33.313	491.63	1087.2	193.66	661.37	583.5	-154.61	590.44	1032.9	139.3	418.91	1035.8	5.9771	543.72	927.27	-127.71	515.5	1031.4	-22.41	608.14	1028.2	-16.233	608.14	1028.2	-16.233	519.65	933.75	83.819	422.85	1034.7	-28.586	687.57	1025.5	-7.1105	611.1	1108.1	-18.344	599.1	1030.6	63.217	636.59	32.444	-61.915	531.35	1087.2	270.41	719.55	1642.6	-70.266	549.54	543.15	121.19	682.35	806.07	260.46	441.51	1216.3	-19.273	547.6	1599.1	41.748	851.53	32.488	-62.983	514.86	468.83	-7.7569	529.9	482.65	54.923	697.18	59.577	-113.65	680.64	853.31	211.7	238.29	162.47	85.486	601.59	1246.4	218.52	721.94	1643	4.878	632.1	1422.3	126.24	647.21	495.6	-19.218	654.36	507.99	-83.511	639.25	673.92	-176.36	545.17	732.18	150.54	616.18	762.4	-193.85	702.07	678.74	-211.8	724.14	402.24	-62.93	724.6	309.42	-61.756	727	216.88	-62.614	551.09	636.51	138.32	502.56	355.98	37.162	614.39	642.3	100.75
702	3.51	890.8	59.342	-79.924	9	2014	4	547.36	1602.6	-95.917	482.21	807.54	-305.69	475.28	1088.3	-296.81	332.34	34.598	34.41	606.92	1409.5	-197.57	299.34	49.714	108.15	377.66	23.967	72.308	544.25	1213.4	-266.73	432.5	298.85	110.09	549.6	775.86	-295	184.63	171.71	25.244	462.84	948.96	-304.64	373.16	231.9	35.572	439.27	291.21	34.222	582.48	932.46	269.08	811.81	25.917	-137.41	612.79	815.48	237.83	271.82	151.56	9.7111	520.79	1471.5	-25.946	630.45	1023.9	-172.48	555.06	496.61	118.12	721.24	308.39	-133.6	431.41	1033.9	-63.797	664.86	520.44	-148.07	722.08	72.027	-33.115	495.41	1088	192.71	664.86	583.69	-155.01	594.98	1032.5	138.49	423.53	1035.8	5.3069	548.3	927.75	-128.75	520.09	1031.6	-23.12	612.71	1028.2	-16.994	612.71	1028.2	-16.994	524.18	933.59	82.706	427.47	1034.9	-29.245	692.14	1025.5	-7.8577	615.7	1108.2	-18.861	603.65	1030.4	62.46	636.68	32.505	-61.879	535.12	1087.8	269.49	724.3	1643	-70.868	559.15	543.18	121.46	684.99	806.01	259.59	446.15	1216.7	-20.194	552.31	1599.4	41.065	851.84	32.246	-62.882	525.23	468.9	-7.6076	540.15	482.75	55.256	697.43	59.498	-113.56	683.6	853.34	210.92	245.15	166.66	86.623	605.89	1246.8	217.65	726.67	1643.3	4.274	636.71	1422.6	125.45	649.47	496.15	-18.975	657.16	508.29	-83.523	643.18	674.18	-176.82	552.58	732.37	150.16	620.65	762.76	-194.49	705.97	679.75	-212.27	726.77	402.01	-62.866	726.56	309.18	-61.653	728.29	216.6	-62.436	559.57	636.64	138.16	511.65	356.86	37.683	622.78	643.16	100.64
703	3.515	891.6	58.517	-79.88	9	2014	4	552.11	1603	-96.589	490.1	807.53	-306.51	481.76	1088.2	-297.62	336.02	36.295	34.519	611.97	1410	-198.17	304.58	52.635	108.37	381.1	25.115	72.4	550.18	1213.5	-267.42	441.13	300.74	110.67	557.67	776.19	-295.89	191.65	177.08	26.614	469.96	948.82	-305.36	380.86	234.41	36.34	447.65	292.94	34.836	585.62	932.84	268.17	811.97	25.805	-137.52	615.49	815.75	236.85	278.47	155.28	10.647	525.44	1471.9	-26.765	634.99	1024.4	-173.2	565.15	496.81	118.59	723.56	308.12	-133.48	436.02	1034.2	-64.448	668.1	520.47	-148.31	722.24	71.87	-32.896	499.15	1088.8	191.79	668.09	583.76	-155.47	599.44	1032.1	137.65	428.12	1035.9	4.6288	552.79	928.2	-129.82	524.64	1031.7	-23.841	617.22	1028.2	-17.772	617.22	1028.2	-17.772	528.62	933.39	81.557	432.07	1035.1	-29.91	696.64	1025.4	-8.6197	620.26	1108.2	-19.383	608.13	1030.2	61.687	636.76	32.555	-61.84	538.84	1088.3	268.59	729.03	1643.3	-71.444	568.73	543.29	121.7	687.63	805.95	258.72	450.76	1217.1	-21.105	556.98	1599.8	40.4	852.12	32.04	-62.749	535.59	469.12	-7.504	550.37	482.97	55.542	697.68	59.429	-113.46	686.54	853.35	210.14	252.31	170.71	87.748	610.14	1247.2	216.81	731.36	1643.6	3.6942	641.26	1422.9	124.71	651.19	496.6	-18.595	659.65	508.54	-83.454	646.93	674.36	-177.29	560.01	732.61	149.78	625.05	763.05	-195.1	709.71	680.68	-212.69	729.3	401.76	-62.752	728.44	308.93	-61.507	729.53	216.32	-62.229	568.03	636.81	137.96	520.81	357.82	38.097	631.17	644.08	100.55
704	3.52	892.37	57.714	-79.838	9	2014	4	556.83	1603.4	-97.242	498.07	807.47	-307.32	488.24	1088	-298.47	340.35	38.191	34.65	616.96	1410.5	-198.76	310.35	55.597	108.65	385.27	26.491	72.499	556.09	1213.6	-268.12	449.94	302.59	111.15	565.82	776.52	-296.74	198.9	182.13	27.982	477.13	948.63	-306.08	388.73	236.89	37.028	456.14	294.68	35.369	588.73	933.17	267.26	812.13	25.721	-137.6	618.18	816	235.88	285.37	158.88	11.534	530.05	1472.3	-27.572	639.48	1024.9	-173.92	575.19	497.1	119	725.85	307.85	-133.33	440.6	1034.5	-65.104	671.26	520.48	-148.53	722.39	71.713	-32.664	502.84	1089.5	190.88	671.11	583.73	-155.95	603.85	1031.5	136.8	432.69	1036	3.9447	557.22	928.64	-130.9	529.15	1031.7	-24.569	621.66	1028.2	-18.558	621.66	1028.2	-18.558	532.99	933.14	80.384	436.64	1035.2	-30.579	701.08	1025.3	-9.3899	624.78	1108.1	-19.905	612.55	1029.9	60.904	636.82	32.597	-61.799	542.5	1088.8	267.71	733.72	1643.6	-71.995	578.27	543.48	121.9	690.27	805.86	257.85	455.35	1217.5	-22.001	561.62	1600.2	39.754	852.4	31.865	-62.592	545.9	469.51	-7.4428	560.54	483.31	55.778	697.91	59.368	-113.36	689.47	853.35	209.38	259.75	174.59	88.848	614.32	1247.5	216.01	736.03	1643.9	3.1378	645.75	1423.2	124.01	652.36	496.96	-18.071	661.81	508.72	-83.301	650.53	674.45	-177.76	567.43	732.9	149.4	629.36	763.27	-195.7	713.31	681.52	-213.05	731.76	401.49	-62.604	730.28	308.67	-61.331	730.75	216.03	-62.003	576.47	637.04	137.73	530.02	358.84	38.401	639.54	645.07	100.5
